<svg width="25" height="24" viewBox="0 0 25 24" fill="none" xmlns="http://www.w3.org/2000/svg">
<path d="M22.322 7.431C22.23 7.29808 22.1072 7.18943 21.964 7.11436C21.8209 7.0393 21.6616 7.00006 21.5 7H7.833L6.679 4.23C6.52769 3.86523 6.27147 3.55359 5.94282 3.33462C5.61418 3.11564 5.22791 2.99918 4.833 3H2.5V5H4.833L9.577 16.385C9.65299 16.5672 9.78118 16.7228 9.94542 16.8322C10.1097 16.9416 10.3026 17 10.5 17H18.5C18.917 17 19.29 16.741 19.437 16.352L22.437 8.352C22.4937 8.20063 22.5129 8.03776 22.4928 7.87735C22.4728 7.71695 22.4142 7.56379 22.322 7.431ZM17.807 15H11.167L8.667 9H20.057L17.807 15Z" fill="#828282" fill-opacity="0.7"/>
<path d="M11 21C11.8284 21 12.5 20.3284 12.5 19.5C12.5 18.6716 11.8284 18 11 18C10.1716 18 9.5 18.6716 9.5 19.5C9.5 20.3284 10.1716 21 11 21Z" fill="#828282" fill-opacity="0.7"/>
<path d="M18 21C18.8284 21 19.5 20.3284 19.5 19.5C19.5 18.6716 18.8284 18 18 18C17.1716 18 16.5 18.6716 16.5 19.5C16.5 20.3284 17.1716 21 18 21Z" fill="#828282" fill-opacity="0.7"/>
</svg>
