<svg width="25" height="24" viewBox="0 0 25 24" fill="none" xmlns="http://www.w3.org/2000/svg">
<path d="M22.243 12.331L13.243 2.331C12.864 1.909 12.136 1.909 11.757 2.331L2.757 12.331C2.62746 12.4746 2.54242 12.6527 2.51224 12.8438C2.48206 13.0348 2.50803 13.2305 2.587 13.407C2.747 13.768 3.105 14 3.5 14H5.5V21C5.5 21.2652 5.60536 21.5196 5.79289 21.7071C5.98043 21.8946 6.23478 22 6.5 22H9.5C9.76522 22 10.0196 21.8946 10.2071 21.7071C10.3946 21.5196 10.5 21.2652 10.5 21V17H14.5V21C14.5 21.2652 14.6054 21.5196 14.7929 21.7071C14.9804 21.8946 15.2348 22 15.5 22H18.5C18.7652 22 19.0196 21.8946 19.2071 21.7071C19.3946 21.5196 19.5 21.2652 19.5 21V14H21.5C21.6937 14.0008 21.8834 13.9453 22.046 13.8401C22.2087 13.735 22.3372 13.5848 22.416 13.4079C22.4948 13.231 22.5203 13.0349 22.4896 12.8437C22.4589 12.6525 22.3732 12.4744 22.243 12.331Z" fill="#222222"/>
</svg>
