<svg width="25" height="24" viewBox="0 0 25 24" fill="none" xmlns="http://www.w3.org/2000/svg">
<path d="M5.5 22H19.5C20.0304 22 20.5391 21.7893 20.9142 21.4142C21.2893 21.0391 21.5 20.5304 21.5 20V9C21.5 8.73478 21.3946 8.48043 21.2071 8.29289C21.0196 8.10535 20.7652 8 20.5 8H17.5V7.223C17.5 4.614 15.597 2.278 13 2.025C12.3049 1.95591 11.603 2.0331 10.9395 2.2516C10.276 2.4701 9.66557 2.82507 9.14752 3.29367C8.62946 3.76228 8.21524 4.33414 7.93149 4.97247C7.64774 5.61079 7.50076 6.30145 7.5 7V8H4.5C4.23478 8 3.98043 8.10535 3.79289 8.29289C3.60536 8.48043 3.5 8.73478 3.5 9V20C3.5 20.5304 3.71071 21.0391 4.08579 21.4142C4.46086 21.7893 4.96957 22 5.5 22ZM17.5 10V12H15.5V10H17.5ZM9.5 7C9.5 5.346 10.846 4 12.5 4C14.154 4 15.5 5.346 15.5 7V8H9.5V7ZM7.5 10H9.5V12H7.5V10Z" fill="#828282" fill-opacity="0.7"/>
</svg>
